<mxfile host="app.diagrams.net" modified="2023-07-07T02:54:40.016Z" agent="Mozilla/5.0 (Macintosh; Intel Mac OS X 10_15_7) AppleWebKit/537.36 (KHTML, like Gecko) Chrome/114.0.0.0 Safari/537.36" etag="VCitISHf9oPihhfiItWr" version="21.5.2" type="github">
  <diagram name="Page-1" id="ntmaqdUkZ_0GD_WqYu-A">
    <mxGraphModel dx="595" dy="454" grid="1" gridSize="10" guides="1" tooltips="1" connect="1" arrows="1" fold="1" page="1" pageScale="1" pageWidth="827" pageHeight="1169" math="0" shadow="0">
      <root>
        <mxCell id="0" />
        <mxCell id="1" parent="0" />
        <mxCell id="dPwo9RFJwc0WLn1ES5Gn-1" value="OrderCreator&lt;br&gt;-------&lt;br&gt;&lt;br&gt;-&amp;gt; createOrder(user_id, dish[] dishes)&lt;br&gt;&lt;br&gt;&lt;br&gt;--&amp;gt; executeOrder()" style="rounded=0;whiteSpace=wrap;html=1;" vertex="1" parent="1">
          <mxGeometry x="50" y="160" width="150" height="180" as="geometry" />
        </mxCell>
        <mxCell id="dPwo9RFJwc0WLn1ES5Gn-2" value="Order&lt;br&gt;---&lt;br&gt;order_id,&amp;nbsp;&lt;br&gt;user_id,&amp;nbsp;&lt;br&gt;creation_time,&amp;nbsp;&lt;br&gt;Dish[] dishes&lt;br&gt;&lt;br&gt;-----&lt;br&gt;&lt;br&gt;Order()" style="rounded=0;whiteSpace=wrap;html=1;" vertex="1" parent="1">
          <mxGeometry x="230" y="160" width="150" height="200" as="geometry" />
        </mxCell>
        <mxCell id="dPwo9RFJwc0WLn1ES5Gn-3" value="Dish&lt;br&gt;&lt;br&gt;---&lt;br&gt;dish_id&lt;br&gt;dish_quantity&lt;br&gt;vendor_id" style="rounded=0;whiteSpace=wrap;html=1;" vertex="1" parent="1">
          <mxGeometry x="560" y="40" width="160" height="190" as="geometry" />
        </mxCell>
        <mxCell id="dPwo9RFJwc0WLn1ES5Gn-5" value="OrderExecutor&lt;br&gt;&lt;br&gt;&lt;br&gt;-------&lt;br&gt;&lt;br&gt;private:&lt;br&gt;confirm&lt;br&gt;-----&lt;br&gt;&lt;br&gt;execturOrder(Order)&lt;br&gt;" style="rounded=0;whiteSpace=wrap;html=1;" vertex="1" parent="1">
          <mxGeometry x="50" y="380" width="170" height="220" as="geometry" />
        </mxCell>
        <mxCell id="dPwo9RFJwc0WLn1ES5Gn-6" value="Vendor&lt;br&gt;&lt;br&gt;--&lt;br&gt;acceptOrder&lt;br&gt;---&lt;br&gt;processOrder&lt;br&gt;&lt;br&gt;---&lt;br&gt;deliverOrder" style="rounded=0;whiteSpace=wrap;html=1;" vertex="1" parent="1">
          <mxGeometry x="580" y="270" width="210" height="220" as="geometry" />
        </mxCell>
        <mxCell id="dPwo9RFJwc0WLn1ES5Gn-7" value="ZomatoVendor" style="rounded=0;whiteSpace=wrap;html=1;" vertex="1" parent="1">
          <mxGeometry x="380" y="550" width="160" height="170" as="geometry" />
        </mxCell>
        <mxCell id="dPwo9RFJwc0WLn1ES5Gn-8" value="SwiggyVendor" style="rounded=0;whiteSpace=wrap;html=1;" vertex="1" parent="1">
          <mxGeometry x="580" y="555" width="160" height="165" as="geometry" />
        </mxCell>
        <mxCell id="dPwo9RFJwc0WLn1ES5Gn-9" value="VendorFactory&lt;br&gt;&lt;br&gt;----&lt;br&gt;createVendor()" style="rounded=0;whiteSpace=wrap;html=1;" vertex="1" parent="1">
          <mxGeometry x="340" y="750" width="280" height="160" as="geometry" />
        </mxCell>
      </root>
    </mxGraphModel>
  </diagram>
</mxfile>
